<?xml version="1.0" encoding="UTF-8" standalone="no"?><!DOCTYPE svg PUBLIC "-//W3C//DTD SVG 1.1//EN" "http://www.w3.org/Graphics/SVG/1.1/DTD/svg11.dtd"><svg width="170px" height="170px" version="1.1" xmlns="http://www.w3.org/2000/svg" xmlns:xlink="http://www.w3.org/1999/xlink" xml:space="preserve" xmlns:serif="http://www.serif.com/" style="fill-rule:evenodd;clip-rule:evenodd;stroke-linejoin:round;stroke-miterlimit:2;"><g transform="matrix(1,0,0,1,-892.433,-599.242)"><g transform="matrix(1,0,0,1,977.172,599.242)"><path d="M0,169.478C-46.8,169.478 -84.739,131.539 -84.739,84.739C-84.739,37.939 -46.8,0 0,0C46.8,0 84.739,37.939 84.739,84.739C84.739,131.539 46.8,169.478 0,169.478" style="fill-rule:nonzero;"/></g><g transform="matrix(1,0,0,1,937.921,748.204)"><path d="M0,-81.752L4.633,-55.478L16.847,-57.631L22.902,-23.293C25.534,-8.363 30.343,0.692 37.428,5.6C43.567,9.854 53.119,12.017 63.775,10.138C73.072,8.499 80.946,5.829 84.861,3.65L80.061,-23.572C78.123,-22.819 75.27,-21.958 71.6,-21.311C62.806,-19.76 59.24,-24.106 57.186,-35.753L52.228,-63.87L72.785,-67.495L68.152,-93.769L0,-81.752Z" style="fill:white;fill-rule:nonzero;"/></g><g transform="matrix(1,0,0,1,953.335,642.155)"><path d="M0,-13.097C-7.512,-6.59 -15.282,-1.82 -21.774,0.633L-3.205,22.145C3.286,19.692 11.057,14.921 18.569,8.414C27.161,0.971 33.537,-7.124 36.54,-13.731L17.971,-35.242C14.969,-28.635 8.592,-20.54 0,-13.097" style="fill:white;fill-rule:nonzero;"/></g></g></svg>