<?xml version="1.0" encoding="UTF-8" standalone="no"?><!DOCTYPE svg PUBLIC "-//W3C//DTD SVG 1.1//EN" "http://www.w3.org/Graphics/SVG/1.1/DTD/svg11.dtd"><svg width="788px" height="363px" version="1.1" xmlns="http://www.w3.org/2000/svg" xmlns:xlink="http://www.w3.org/1999/xlink" xml:space="preserve" xmlns:serif="http://www.serif.com/" style="fill-rule:evenodd;clip-rule:evenodd;stroke-linejoin:round;stroke-miterlimit:2;"><g transform="matrix(1,0,0,1,-113,-308.791)"><g transform="matrix(-1,0,0,1,1014,-100)"><rect x="113" y="408.791" width="788" height="362.418" style="fill:rgb(0,178,114);"/></g><g transform="matrix(1,0,0,1,171.809,636.079)"><path d="M0,-125.417L7.107,-85.109L25.845,-88.413L35.134,-35.734C39.172,-12.83 46.55,1.063 57.419,8.591C66.836,15.117 81.491,18.436 97.839,15.553C112.101,13.038 124.181,8.943 130.187,5.599L122.823,-36.162C119.85,-35.007 115.473,-33.686 109.843,-32.693C96.352,-30.314 90.88,-36.982 87.73,-54.848L80.124,-97.984L111.661,-103.545L104.553,-143.853L0,-125.417Z" style="fill:white;fill-rule:nonzero;"/></g><g transform="matrix(1,0,0,1,318.807,413.958)"><path d="M0,225.701L-26.492,75.456L29.178,65.64L55.67,215.885L0,225.701ZM22.345,24.18C24.991,38.748 15.988,52.141 -1.749,55.268C-18.789,58.273 -31.755,48.753 -34.251,34.159C-36.978,19.134 -27.829,6.105 -10.555,3.059C6.794,0 19.459,9.182 22.345,24.18" style="fill:white;fill-rule:nonzero;"/></g><g transform="matrix(1,0,0,1,431.244,499.141)"><path d="M0,28.828L0.617,28.719C2.889,21.312 4.926,14.814 7.306,8.492L24.612,-38.564L91.15,-50.297L49.254,19.594L125.119,98.63L56.809,110.675L16.64,58.719L8.184,75.244L15.71,117.922L-39.881,127.724L-78.112,-89.094L-22.521,-98.896L0,28.828Z" style="fill:white;fill-rule:nonzero;"/></g><g transform="matrix(1,0,0,1,564.757,370.59)"><path d="M0,225.701L-26.492,75.456L29.178,65.64L55.67,215.885L0,225.701ZM22.345,24.18C24.991,38.748 15.988,52.141 -1.749,55.268C-18.789,58.273 -31.755,48.753 -34.251,34.159C-36.978,19.134 -27.829,6.105 -10.555,3.059C6.794,0 19.459,9.182 22.345,24.18" style="fill:white;fill-rule:nonzero;"/></g><g transform="matrix(1,0,0,1,768.774,334.616)"><path d="M0,225.701L-26.492,75.456L29.178,65.64L55.67,215.885L0,225.701ZM22.345,24.18C24.991,38.748 15.988,52.141 -1.749,55.268C-18.789,58.273 -31.755,48.753 -34.251,34.159C-36.978,19.133 -27.829,6.105 -10.555,3.059C6.794,0 19.459,9.182 22.345,24.18" style="fill:white;fill-rule:nonzero;"/></g><g transform="matrix(1,0,0,1,824.838,350.695)"><path d="M0,-15.248L-6.661,-14.074L-7.077,-16.436L9.112,-19.29L9.528,-16.928L2.838,-15.748L6.239,3.542L3.401,4.042L0,-15.248Z" style="fill:white;fill-rule:nonzero;"/></g><g transform="matrix(1,0,0,1,857.303,340.183)"><path d="M0,-0.374C-0.699,-3.351 -1.543,-6.972 -1.995,-9.652L-2.085,-9.636C-2.393,-6.989 -2.818,-4.101 -3.385,-0.942L-5.396,10.243L-7.527,10.618L-12.909,0.935C-14.489,-1.941 -15.825,-4.569 -16.89,-7.025L-16.969,-7.011C-16.568,-4.3 -16.072,-0.669 -15.713,2.617L-14.657,12.014L-17.34,12.487L-19.635,-9.434L-16.025,-10.07L-10.454,-0.245C-9.09,2.248 -7.933,4.5 -6.967,6.66L-6.883,6.645C-6.697,4.351 -6.351,1.831 -5.853,-1.054L-3.804,-12.225L-0.195,-12.861L4.977,8.552L2.204,9.041L0,-0.374Z" style="fill:white;fill-rule:nonzero;"/></g><g transform="matrix(1,0,0,1,195.455,473.387)"><path d="M0,-20.092C-11.524,-10.11 -23.445,-2.791 -33.404,0.972L-4.917,33.973C5.042,30.21 16.963,22.891 28.487,12.909C41.668,1.491 51.45,-10.929 56.056,-21.065L27.57,-54.065C22.964,-43.929 13.181,-31.51 0,-20.092" style="fill:white;fill-rule:nonzero;"/></g><g transform="matrix(1,0,0,1,699.166,450.875)"><path d="M0,52.837L-7.606,9.702L32.229,2.678L25.122,-37.63L-14.713,-30.606L-22.239,-73.284L-74.393,-51.651L-68.995,-21.035L-87.728,-17.732L-80.62,22.576L-61.888,19.273L-52.599,71.951C-48.56,94.856 -41.178,108.748 -30.313,116.276C-20.894,122.802 -6.239,126.121 10.109,123.239C24.371,120.724 36.451,116.628 42.457,113.285L35.093,71.523C32.12,72.679 27.743,74 22.113,74.993C8.622,77.371 3.15,70.704 0,52.837" style="fill:white;fill-rule:nonzero;"/></g></g></svg>